<?xml version="1.0" encoding="utf-8"?>
<!-- Generator: Adobe Illustrator 24.1.0, SVG Export Plug-In . SVG Version: 6.00 Build 0)  -->
<svg version="1.1" id="Layer_1" xmlns="http://www.w3.org/2000/svg" xmlns:xlink="http://www.w3.org/1999/xlink" x="0px" y="0px"
	 viewBox="0 0 1080 768" style="enable-background:new 0 0 1080 768;" xml:space="preserve">
<style type="text/css">
	.st0{fill:#E8E8E8;stroke:#000000;stroke-miterlimit:10;}
</style>
<path id="northamerica" class="st0" d="M190.7,396.4c-6.8-4-25.5-14.9-32.4-18.9c-23.4-13.6-28.9-16.8-36.4-22.9
	c-6.8-5.5-16.9-13.7-25.6-27c-18.3-27.8-17.7-58.5-17.5-67.5c0.2-12.9,2.7-35.1,2.7-35.1l0,0c17.5-39,13.5-45.9,13.5-45.9
	c-4.8-8.2-19.3-10.6-29.7-8.1c-16.8,4-19.6,20-29.7,18.9c-9.9-1.1-18.7-17.7-17.5-32.4c0.9-11.3,7.7-22.3,17.5-27
	c8.9-4.2,17.9-2.1,21.6-1.3c4.7,1,36-1.1,98.5-5.4c33.1-2.3,49.8-3.4,62.1-6.7c26.7-7.2,29.2-14,51.3-18.9
	c25.5-5.7,27.4,2.2,72.9,2.7c35.2,0.4,51.1-4.2,83.6,2.7c22.4,4.7,28.1,9.7,29.7,14.8c3.2,10.6-10.2,25.9-24.3,33.7
	c-17.6,9.8-39.4,9.4-82.3,8.1c-11.6-0.4-23.2-1-27,5.4c-2.8,4.9,1.1,10,4,27c2.2,13.1,3.3,19.6,1.3,22.9c-7.7,13-37.9-5.2-62.1,10.8
	c-15.6,10.4-22,30.6-22.9,33.7c-3.8,12.5-0.6,16.3-5.4,28.3c-1.7,4.4-9.9,24.9-24.3,27c-12.2,1.8-16.4-11.6-32.4-10.8
	c-1.3,0.1-15.9,1.1-21.6,12.1c-2.5,4.9-4.1,13.5,0,17.5c7.2,7.1,24.9-6.9,32.4,0c4.3,4,1.5,11.7,0,27
	C189.2,376.2,189.9,388.4,190.7,396.4z"/>
<path id="southamerica" class="st0" d="M190.7,396.4c-3.9,11.2-9.1,30.9-6.7,55.3c0.7,7.7,3.1,29.4,16.2,51.3
	c2.8,4.7,8.6,12.6,20.2,28.3c12.3,16.7,13.7,17.9,16.2,21.6c18.5,27.3,1.7,49,16.2,98.5c3.9,13.3,9.2,25.5,20.2,35.1
	c7.6,6.5,21.8,15.4,28.3,10.8c7.3-5.1-4.1-21,0-48.6c0.8-5.6,3.7-23.3,16.2-39.1c11.9-15.1,19.3-11.7,28.3-24.3
	c9.7-13.5,3.1-20.1,9.4-54c5.1-27.5,11.5-33.9,9.4-54c-0.9-9.3-2.2-21.6-10.8-27c-11.4-7.2-23.2,5.5-33.7-1.3
	c-9.4-6.2-3.3-18.6-16.2-37.8c-4.9-7.4-10.1-11.9-13.5-14.8c-6.7-5.8-19.4-15-37.8-18.9c-8.3-1.8-19.8-4.2-33.7,0
	C203.8,382.1,194.5,391.9,190.7,396.4z"/>
<path id="asia" class="st0" d="M557.6,635.2c-27.3-61.8-28.2-97.3-22.9-118.7c1.7-6.8,8.4-30.2,0-52.6
	c-4.3-11.4-12.1-22.9-12.1-22.9c-7-10.2-10.5-15.3-16.2-18.9c-18.3-11.5-36.7,5.8-59.4-5.4c-7.6-3.8-12.1-8.9-14.8-12.1
	c-23.9-27.7-11.2-69.6-9.4-75.6c1.6-5.4,6-13.9,14.8-31c14.5-28.2,21.8-42.3,28.3-45.9c17.3-9.5,27.6,5.9,66.1,2.7
	c5.4-0.4,12.4-1.3,18.9,2.7c8.8,5.5,7.6,14.3,16.2,18.9c7.5,4,11.7-0.8,20.2,1.3c5,1.3,9.3,4.4,25.6,32.4
	c13.4,23,20.1,34.4,22.9,44.5c4.1,14.6,2.5,20.1,8.1,24.3c11.7,8.8,30-7.3,39.1,0c7.4,5.9,0.8,20.5-2.7,47.2
	c-0.7,5.5-0.5,5.3,0,74.2c0.3,35.1,0.2,52.9-6.7,62.1c-5.6,7.4-7.5,4.6-39.1,21.6c-29.1,15.7-48.6,29.4-58,36.4
	C568.4,626.4,561.9,631.7,557.6,635.2z"/>
<path id="africa" class="st0" d="M464.5,215.6c1-9.3,3.5-23.5,10.8-39.1c6.4-13.6,16.2-34.6,36.4-43.2c15.4-6.6,19.2,1.6,49.9-1.3
	c30.6-2.9,39.9-12.3,49.9-5.4c9.8,6.7,3.2,17.2,12.1,39.1c10.8,26.6,26.8,27.1,35.1,54c2.4,7.7,7.3,24,0,31
	c-6.4,6.2-16.5-0.4-45.9,0c-12.4,0.2-11.2,1.3-24.3,1.3c-15.1,0-28.1-1.5-37.8-2.7c-10.4-1.3-12.8-1.9-18.9-2.7
	c-38.6-4.9-56.9,6.9-66.1-2.7C462.3,240.3,459.6,232.7,464.5,215.6z"/>
<path id="europe" class="st0" d="M635.9,262.9c-0.5,0.4-12,8.6-13.5,21.6c-1.5,12.6,8.1,15.8,13.5,33.7c6.5,21.5-2.5,32.5,5.4,39.1
	c8.1,6.7,24.6,1.2,33.7-4c19.4-11,16.9-26.6,31-31c17.1-5.4,38,12.3,47.2,22.9c5.4,6.3,9.1,14.2,16.2,29.7
	c15.6,33.9,16.6,45.6,21.6,45.9c13.3,0.8,27.2-81.9,33.7-80.9c5.5,0.8-10.2,58.3,18.9,107.9c14.7,25,33.4,35.4,37.8,37.8
	c19.1,10.2,59.5,22.5,82.3,0c22-21.7,13.7-62,0-83.6c-7.4-11.7-11.2-9.6-20.2-22.9C928.6,357,918.2,321,932.7,302
	c10.6-13.9,23.5-4.4,40.5-18.9c13-11.1,16.9-31.9,24.3-72.9c4.7-26.3,7-39.7,2.7-48.6c-8.4-17.3-30-23.8-66.1-29.7
	c-95.3-15.6-101.2,3.9-171.3-9.4c0,0-31.9-6.1-94.4,0c-6.1,0.6-18,1.9-21.6,9.4c-4.6,9.7,9.9,18.2,16.2,41.8
	c4.6,17.2-2.1,16.9,1.3,48.6c2,18.4,5,25.4,0,31C657.8,260.7,647.8,254.5,635.9,262.9z"/>
<path id="australia" class="st0" d="M909.8,540.8c-5,1.5-20.2,6.6-29.7,21.6c-11,17.3-11.7,43.4,0,52.6c3.2,2.5,6.2,2.9,52.6,0
	c13.9-0.8,22.2-1.4,29.7,4c8.5,6.2,7.1,13.8,13.5,16.2c14.1,5.2,37.2-25.7,39.1-28.3c11.8-16.1,16.1-31.3,18.9-41.8
	c5.4-20.2,11.1-41.4,0-56.7c-4.6-6.4-13.7-14-21.6-12.1c-9.3,2.2-10.8,16.3-17.5,16.2c-6.2-0.1-7-12.3-16.2-16.2
	c-5.1-2.1-11.8-1.3-25.6,6.7C942.1,509.4,925.9,520.7,909.8,540.8z"/>
</svg>
